<svg width="290" height="69" viewBox="0 0 290 69" fill="none" xmlns="http://www.w3.org/2000/svg">
<path fill-rule="evenodd" clip-rule="evenodd" d="M0.0491943 14.1733L2.62559 29.6905C3.01143 28.9488 3.83662 29.0689 4.62447 29.405C5.30778 29.6943 6.12924 30.2377 7.14424 31.1943L8.19595 35.682C7.25937 34.6073 6.51258 33.9508 5.80999 33.6223C5.43037 33.4403 4.66181 33.2584 4.92007 34.3432C5.43846 36.5356 9.04168 38.6287 10.2739 43.0154C11.3069 47.2896 9.33915 47.2548 7.89164 46.3747C7.2158 45.964 6.62336 45.4933 6.11181 44.7478L4.39297 40.0219C4.98106 41.0732 5.5455 41.8307 6.79325 42.9528C7.35271 43.4551 8.38389 44.1722 7.85306 42.2206C6.99239 40.2563 5.12793 39.4248 3.71651 36.2538L5.72846 48.382L28.8532 65.3372V39.0956L0.0491943 14.1733ZM13.2286 36.6891L11.4133 35.8437L12.6959 40.454L10.1021 39.138L6.12115 25.7411L8.69567 26.7166L10.3324 31.9632L12.1433 32.7365L10.7643 27.4849L13.6238 28.5678L17.372 42.8328L14.5106 41.3809L13.2286 36.6891ZM28.0759 52.279L25.0072 50.5143L22.546 41.5793L22.5279 41.5692L22.7289 49.2141L20.338 47.8494C20.9292 49.0283 21.3972 50.5168 21.6934 52.272C22.363 56.2391 21.5104 57.5855 19.6279 56.5077C17.8655 55.5006 16.5587 53.1054 15.9195 49.5236C15.2898 45.959 15.9058 44.3656 17.6346 45.0182C18.458 45.3278 19.2203 46.0139 19.8713 47.0293L16.7373 35.1588L18.883 35.9739L20.8993 44.1861L20.9167 44.1943L20.6989 36.66L23.228 37.6153L25.6464 46.5731L25.6688 46.5845L25.3116 38.4051L28.0759 39.4375V52.279Z" fill="white"/>
<path fill-rule="evenodd" clip-rule="evenodd" d="M18.107 47.7312C17.387 47.4242 17.6832 49.427 17.8624 50.4468C18.0647 51.6207 18.4655 53.5022 19.1699 53.8749C19.9696 54.2957 19.6703 52.4148 19.4686 51.2144C19.2801 50.1593 18.8693 48.0503 18.107 47.7312Z" fill="white"/>
<path fill-rule="evenodd" clip-rule="evenodd" d="M44.2263 7.05606L41.4259 17.7608L36.3341 17.0822L37.0385 5.53214L42.6792 6.30737L29.6647 0.020874L3.724 14.4893L12.7968 21.431L12.3064 20.6273C10.0262 16.8838 10.8302 13.0058 18.0155 9.21684C24.6233 5.73874 28.2278 7.25066 30.1252 10.9253C33.4826 17.4455 27.5756 17.5188 29.6379 21.3406L22.8932 25.3488L22.3537 24.415C19.5427 19.5608 24.477 18.4583 22.5672 15.0086C22.088 14.1456 21.1607 13.6521 20.2378 14.1595C19.1332 14.7673 19.2938 16.3013 20.0293 17.5971L20.5614 18.5114L13.8964 22.2719L26.8269 32.1635L24.1528 27.5323L30.778 23.521L34.4217 30.2788L28.9459 33.7853L32.1882 36.2633L58.5651 13.9838L44.2263 7.05606ZM40.376 25.8062L34.8231 25.0885L35.7217 19.1065L41.3867 19.854L40.376 25.8062ZM48.8377 18.8481H48.8426L45.1722 23.013L46.1903 19.5627C45.0179 19.2449 44.1497 18.1689 44.1497 16.88C44.1402 16.5079 44.2041 16.1376 44.3378 15.7909C44.4715 15.4443 44.6722 15.1283 44.928 14.8617C45.1839 14.5951 45.4898 14.3831 45.8276 14.2384C46.1655 14.0937 46.5284 14.0192 46.8951 14.0192C47.2618 14.0192 47.6247 14.0937 47.9626 14.2384C48.3004 14.3831 48.6063 14.5951 48.8622 14.8617C49.118 15.1283 49.3187 15.4443 49.4524 15.7909C49.5861 16.1376 49.65 16.5079 49.6405 16.88C49.6405 17.6477 49.3355 18.3446 48.8377 18.8481Z" fill="white"/>
<path fill-rule="evenodd" clip-rule="evenodd" d="M33.6568 56.658L34.6139 55.7406C35.2754 55.1057 35.9232 54.7253 35.8361 56.1102C35.7627 57.3562 35.0395 58.4441 34.3942 59.0709L33.4669 59.9554L33.6568 56.658ZM56.0502 43.9543L54.9008 40.4553L52.9144 46.9111L49.3416 50.2812L53.1067 39.7635L51.0051 34.9952L54.9157 31.229L55.8057 34.5239L57.6745 28.5805L60.5135 25.8447L61.2864 17.6565L31.5203 38.1568L30.8968 50.2471L36.7074 44.7042C38.3192 43.1689 39.8376 42.5801 39.6447 45.6898C39.5053 47.9252 38.7616 49.7568 37.4977 51.4911L37.4965 51.5385C38.7566 50.611 39.4406 51.6111 39.3385 53.2254C39.0865 57.2759 37.1953 59.4803 35.2916 61.3189L30.0635 66.3582L29.9863 67.8669L58.397 48.3219L59.0784 41.0978L56.0509 43.9549L56.0502 43.9543ZM36.1373 49.6607C36.207 48.4477 35.6444 48.6322 35.0084 49.2431L34.0333 50.1706L33.854 53.3151L34.7427 52.4628C35.3694 51.8689 36.0626 50.8915 36.1373 49.6607ZM59.2769 38.9807L60.3324 27.7793L57.5444 35.5335L59.2769 38.9807ZM45.3986 43.167C46.8181 41.8048 47.0814 39.0122 47.2382 37.2331C47.3502 35.7129 47.4983 32.7611 46.1087 34.1031C44.767 35.4046 44.4266 38.5333 44.3133 40.0566C44.177 41.8067 44.1154 44.3959 45.3986 43.167ZM45.0956 47.0286C41.8657 50.11 40.1793 49.1262 40.5657 43.6687C40.9484 38.2061 43.0992 33.314 46.4248 30.0734C49.7804 26.8089 51.5341 27.9379 51.0456 33.5673C50.5589 39.1866 48.3515 43.9214 45.0956 47.0286Z" fill="white"/>
<path fill-rule="evenodd" clip-rule="evenodd" d="M91.5871 25.2748C89.1235 24.4064 86.5343 23.9616 83.9264 23.9588C82.3718 23.9588 79.671 23.9979 79.671 25.6899C79.671 29.1055 93.2512 25.8769 93.2512 35.9859C93.2512 43.0084 86.4101 44.7756 80.6698 44.7756C76.8594 44.7756 73.7154 44.4028 70.0126 43.5366V36.7358C72.6774 37.8649 75.9358 38.4619 78.8943 38.4619C81.2255 38.4619 83.3333 37.9735 83.3333 36.6594C83.3333 33.1263 69.7562 36.3233 69.7562 26.1391C69.7562 18.9233 77.1568 17.6495 83.0396 17.6495C85.8151 17.6495 88.8844 17.9882 91.5871 18.5505V25.2748ZM113.601 18.0975H123.518V44.3251H113.601V34.896H106.976V44.3251H97.0548V18.0975H106.976V27.1532H113.601V18.0975ZM137.183 31.2145C137.183 28.7725 137.477 23.9588 141.141 23.9588C144.916 23.9588 145.177 28.7725 145.217 31.2145C145.177 34.0317 145.064 38.4619 141.141 38.4619C137.592 38.4619 137.183 34.0311 137.183 31.2145ZM155.576 31.2145C155.576 22.4165 150.17 17.6495 141.141 17.6495C132.111 17.6495 126.818 22.4165 126.818 31.2145C126.818 40.1558 132.111 44.7756 141.141 44.7756C150.17 44.7756 155.576 40.1558 155.576 31.2145ZM169.372 34.8537H169.449L173.591 18.0975H183.103L187.133 34.8537H187.214L190.397 18.0975H199.239L193.021 44.3251H182.365L178.035 27.1911H177.962L173.851 44.3251H162.971L156.939 18.0975H166.229L169.372 34.8537ZM212.426 33.5439H215.09C216.941 33.5439 218.79 33.9546 218.79 36.2076C218.79 38.237 216.834 38.92 215.016 38.92H212.426V33.5439ZM203.102 44.3251H218.088C223.456 44.3251 228.712 43.6491 228.712 37.0372C228.712 34.4064 226.488 31.5506 222.902 31.0565V30.982C226.344 30.0842 228.227 28.171 228.227 24.5565C228.227 19.5639 223.83 18.0975 219.348 18.0975H203.102V44.3251ZM212.426 23.0566H215.13C216.905 23.0566 218.532 23.6625 218.532 25.6135C218.532 27.6081 216.639 28.13 214.907 28.13H212.426V23.0566ZM241.322 31.2145C241.322 28.7725 241.615 23.9588 245.278 23.9588C249.056 23.9588 249.316 28.7725 249.35 31.2145C249.316 34.0317 249.203 38.4619 245.278 38.4619C241.728 38.4619 241.322 34.0311 241.322 31.2145ZM259.716 31.2145C259.716 22.4165 254.306 17.6495 245.278 17.6495C236.252 17.6495 230.959 22.4165 230.959 31.2145C230.959 40.1558 236.252 44.7756 245.278 44.7756C254.306 44.7756 259.716 40.1558 259.716 31.2145Z" fill="white"/>
<path fill-rule="evenodd" clip-rule="evenodd" d="M259.404 18.0975H270.838L274.69 25.8403L278.834 18.0975H289.271L280.611 30.8708L289.935 44.3252H278.422L273.576 35.4628L269.063 44.3252H258.292L267.547 30.8708L259.404 18.0975Z" fill="white"/>
</svg>
